<svg xmlns="http://www.w3.org/2000/svg" xmlns:xlink="http://www.w3.org/1999/xlink" width="723" height="144" viewBox="0 0 723 144">
  <defs>
    <rect id="carbonium-a" width="128" height="144" x="0" y="0" rx="8"/>
  </defs>
  <g fill="none" fill-rule="evenodd">
    <mask id="carbonium-b" fill="#fff">
      <use xlink:href="#carbonium-a"/>
    </mask>
    <use fill="#6099E7" xlink:href="#carbonium-a"/>
    <ellipse cx="-13" cy="144" fill="#000" fill-opacity=".1" mask="url(#carbonium-b)" rx="159" ry="100"/>
    <path fill="#000" fill-rule="nonzero" d="M70.453125 91.9912109C76.2246382 91.9912109 81.9667683 90.6728647 87.6796875 88.0361328L87.6796875 98.0996094C81.6737981 100.501965 75.6094056 101.703125 69.4863281 101.703125 66.6738141 101.703125 64.05177 101.468752 61.6201172 101 59.1884644 100.531248 56.6982549 99.6010812 54.1494141 98.2094727 51.6005732 96.8178641 49.425302 95.0161243 47.6235352 92.8041992 45.8217683 90.5922741 44.3496151 87.6259952 43.2070312 83.9052734 42.0644474 80.1845517 41.4931641 75.8633059 41.4931641 70.9414062 41.4931641 66.0195066 42.0644474 61.6982608 43.2070312 57.9775391 44.3496151 54.2568173 45.8217683 51.2905384 47.6235352 49.0786133 49.425302 46.8666882 51.6005732 45.0649484 54.1494141 43.6733398 56.6982549 42.2817313 59.1884644 41.3515648 61.6201172 40.8828125 64.05177 40.4140602 66.6738141 40.1796875 69.4863281 40.1796875 75.6094056 40.1796875 81.6737981 41.3661991 87.6796875 43.7392578L87.6796875 53.8466797C81.9667683 51.2099478 76.2246382 49.8916016 70.453125 49.8916016 67.757799 49.8916016 65.4506932 50.1332984 63.5317383 50.6166992 61.6127834 51.1001001 59.7378021 52.0302666 57.9067383 53.4072266 56.0756744 54.7841866 54.6840868 56.9374854 53.7319336 59.8671875 52.7797804 62.7968896 52.3037109 66.488259 52.3037109 70.9414062 52.3037109 75.3945535 52.7797804 79.0859229 53.7319336 82.015625 54.6840868 84.9453271 56.0756744 87.0986259 57.9067383 88.4755859 59.7378021 89.8525459 61.6127834 90.7827124 63.5317383 91.2661133 65.4506932 91.7495141 67.757799 91.9912109 70.453125 91.9912109zM199.740247 128.002857C206.863023 128.002857 213.949537 126.374302 221 123.117143L221 135.548571C213.587974 138.516205 206.103749 140 198.547098 140 195.076101 140 191.840167 139.710479 188.839201 139.131429 185.838234 138.552378 182.765001 137.403342 179.61941 135.684286 176.473819 133.96523 173.789259 131.739537 171.565652 129.007143 169.342044 126.274748 167.525221 122.610499 166.115128 118.014286 164.705036 113.418072 164 108.08003 164 102 164 95.9199696 164.705036 90.5819277 166.115128 85.9857143 167.525221 81.3895008 169.342044 77.7252518 171.565652 74.9928571 173.789259 72.2604625 176.473819 70.0347705 179.61941 68.3157143 182.765001 66.5966581 185.838234 65.4476219 188.839201 64.8685714 191.840167 64.2895209 195.076101 64 198.547098 64 206.103749 64 213.587974 65.4656996 221 68.3971429L221 80.8828571C213.949537 77.625698 206.863023 75.9971429 199.740247 75.9971429 196.413875 75.9971429 193.566615 76.2957113 191.198382 76.8928571 188.83015 77.490003 186.516186 78.6390391 184.256422 80.34 181.996659 82.0409609 180.279264 84.7009343 179.104186 88.32 177.929109 91.9390657 177.341579 96.4990201 177.341579 102 177.341579 107.50098 177.929109 112.060934 179.104186 115.68 180.279264 119.299066 181.996659 121.959039 184.256422 123.66 186.516186 125.360961 188.83015 126.509997 191.198382 127.107143 193.566615 127.704289 196.413875 128.002857 199.740247 128.002857zM255.579493 83C263.485063 83 269.531469 85.0452041 273.718894 89.1356736 277.906319 93.2261432 280 99.1416438 280 106.882353L280 122.070209C280 127.24291 278.095833 131.691 274.287442 135.414611 270.479052 139.138222 264.622159 141 256.71659 141 248.594429 141 242.611194 139.129051 238.766705 135.387097 234.922216 131.645143 233 127.096168 233 121.740038 233 120.602777 233.108294 119.43802 233.324885 118.245731 233.541476 117.053441 234.110018 115.558516 235.03053 113.760911 235.951041 111.963305 237.205445 110.385839 238.793779 109.028463 240.382112 107.671087 242.728479 106.50633 245.832949 105.534156 248.93742 104.561981 252.601361 104.075901 256.824885 104.075901 259.857158 104.075901 263.105973 104.332698 266.571429 104.8463 266.571429 97.7659355 262.654801 94.2258065 254.821429 94.2258065 248.612488 94.2258065 243.215845 95.1796236 238.631336 97.0872865L238.631336 86.1366224C243.721224 84.0455303 249.370553 83 255.579493 83zM267 120.649668L267 113.700322C263.823203 113.269352 261.108191 113.035914 258.854881 113 250.321857 113 246.036939 115.388253 246 120.16483 246 126.054744 249.564608 128.999657 256.693931 128.999657 263.564678 129.035571 267 126.252269 267 120.649668zM297 88.9306358C297.915037 88.4913273 299.17777 87.9696562 300.788235 87.3656069 302.398701 86.7615577 305.637884 85.901258 310.505882 84.7846821 315.373881 83.6681062 320.205205 83.0732181 325 83L325 94.6965318C319.363371 94.7697499 314.532046 95.3920943 310.505882 96.5635838L310.505882 140 297 140 297 88.9306358zM359.353206 82.4688593C367.596217 82.4688593 373.931361 84.8887092 378.35883 89.7284815 382.786299 94.5682537 385 101.536693 385 110.63401 385 115.619339 384.352087 120.013277 383.056243 123.815955 381.760398 127.618633 380.230605 130.502439 378.466817 132.46746 376.703028 134.43248 374.588314 136.033584 372.12261 137.270819 369.656906 138.508054 367.515195 139.272217 365.697413 139.563331 363.879631 139.854445 362.052878 140 360.217098 140 352.334044 140 346.493832 138.16237 342.696288 134.487054 338.898744 130.811738 337 126.390509 337 121.223233L337 62 350.28234 62 350.28234 83.3421973C353.44996 82.7599691 356.473551 82.4688593 359.353206 82.4688593zM360.248101 129C364.592427 129 367.637122 127.570893 369.382278 124.712635 371.127435 121.854377 372 117.171579 372 110.664099 372 104.480195 370.876804 100.15692 368.63038 97.6941448 366.383955 95.2313693 363.12576 94 358.855696 94 355.513907 94 352.562038 94.3055953 350 94.9167951L350 123.067797C350 127.022619 353.416 129 360.248101 129zM404.851086 90.3688213C409.418499 85.4562492 415.968072 83 424.5 83 433.031928 83 439.581501 85.4562492 444.148914 90.3688213 448.716328 95.2813934 451 102.325049 451 111.5 451 120.674951 448.716328 127.718607 444.148914 132.631179 439.581501 137.543751 433.031928 140 424.5 140 415.968072 140 409.418499 137.543751 404.851086 132.631179 400.283672 127.718607 398 120.674951 398 111.5 398 102.325049 400.283672 95.2813934 404.851086 90.3688213zM414.174737 125.435185C416.32773 127.81174 419.611908 129 424.027368 129 428.442829 129 431.708761 127.802738 433.825263 125.408179 435.941765 123.01362 437 118.386608 437 111.527006 437 104.667404 435.941765 100.031391 433.825263 97.6188272 431.708761 95.2062637 428.442829 94 424.027368 94 419.611908 94 416.336853 95.2062637 414.202105 97.6188272 412.067358 100.031391 411 104.667404 411 111.527006 411 118.386608 412.058235 123.022622 414.174737 125.435185zM490.433839 83C498.134529 83 504.153991 85.0409237 508.492408 89.1228324 512.830824 93.204741 515 98.9248187 515 106.283237L515 140 501.767896 140 501.767896 105.130058C501.767896 103.629087 501.632322 102.375246 501.361171 101.368497 501.09002 100.361748 500.547726 99.309254 499.734273 98.2109827 498.92082 97.1127113 497.5922 96.2890201 495.748373 95.7398844 493.904546 95.1907487 491.536529 94.916185 488.644252 94.916185 485.390439 94.916185 481.955911 95.2456614 478.340564 95.9046243L478.340564 140 465 140 465 89.150289C473.134531 85.0500758 481.612393 83 490.433839 83zM549 140L536 140 536 84 549 84 549 140zM549 76L535 76 535 64 549 64 549 76zM605.580087 84L619 84 619 114.696532C619 122.933567 616.781407 129.376663 612.344156 134.026012 607.906904 138.67536 601.774209 141 593.945887 141 586.117565 141 580.002908 138.67536 575.601732 134.026012 571.200555 129.376663 569 122.933567 569 114.696532L569 84 582.419913 84 582.419913 116.508671C582.419913 121.011583 583.32178 124.251435 585.125541 126.228324 586.929302 128.205212 589.869388 129.193642 593.945887 129.193642 598.094537 129.193642 601.070698 128.205212 602.874459 126.228324 604.67822 124.251435 605.580087 121.011583 605.580087 116.508671L605.580087 84zM699 83C706.561682 83 712.452034 85.0601289 716.671233 89.1785791 720.890432 93.2970292 723 98.9987092 723 106.28379L723 140 709.575342 140 709.575342 105.350279C709.575342 101.762652 708.671242 99.0536671 706.863014 97.2232448 705.054785 95.3928225 701.684956 94.4776251 696.753425 94.4776251 692.881259 94.4776251 689.063946 94.9169199 685.30137 95.7955226 686.872154 97.5893364 687.657534 101.085391 687.657534 106.28379L687.657534 140 674.342466 140 674.342466 105.020805C674.342466 101.579611 673.45663 98.9987542 671.684932 97.2781572 669.913233 95.5575603 666.598198 94.6972747 661.739726 94.6972747 658.525098 94.6972747 655.420106 94.9901379 652.424658 95.575873L652.424658 140 639 140 639 89.2609477C647.365339 85.0509764 655.584435 82.9643263 663.657534 83 669.721492 83 674.780802 84.3737309 678.835616 87.1193643 685.77629 84.3737309 692.497684 83 699 83zM19.8398438 18.4648438C21.2395903 18.4648438 22.3463501 18.8408166 23.1601562 19.5927734 23.9739624 20.3447303 24.3808594 21.3684831 24.3808594 22.6640625 24.3808594 23.2109402 24.2978524 23.7399063 24.1318359 24.2509766 23.9658195 24.7620468 23.7119158 25.2405577 23.3701172 25.6865234 23.0283186 26.1324892 22.5546905 26.488931 21.9492188 26.7558594 21.343747 27.0227878 20.640629 27.15625 19.8398438 27.15625 16.8124849 27.15625 15.2988281 25.0696823 15.2988281 20.8964844 15.2988281 19.978511 15.3818351 19.1403033 15.5478516 18.3818359 15.713868 17.6233686 15.927082 16.9934921 16.1875 16.4921875 16.447918 15.9908829 16.7620424 15.5498066 17.1298828 15.1689453 17.4977232 14.788084 17.8606753 14.4951182 18.21875 14.2900391 18.5768247 14.0849599 18.962563 13.9189459 19.3759766 13.7919922 19.7893901 13.6650384 20.1507146 13.5820314 20.4599609 13.5429688 20.7692073 13.5039061 21.0768214 13.484375 21.3828125 13.484375 22.0924515 13.484375 22.7369763 13.5690096 23.3164062 13.7382812L23.3164062 15.0761719C22.6523404 14.9134106 22.0598984 14.8352864 21.5390625 14.8417969 21.2330714 14.8417969 20.9335952 14.8613279 20.640625 14.9003906 20.3476548 14.9394533 19.9781923 15.0452465 19.5322266 15.2177734 19.0862608 15.3903003 18.6891293 15.6279282 18.3408203 15.9306641 17.9925113 16.2334 17.6751316 16.6777314 17.3886719 17.2636719 17.1022121 17.8496123 16.9134119 18.5429647 16.8222656 19.34375 17.6881554 18.7578096 18.6940047 18.4648438 19.8398438 18.4648438zM19.8398438 25.7988281C20.5039096 25.7988281 21.0637998 25.6751314 21.5195312 25.4277344 21.9752627 25.1803373 22.2958975 24.8613301 22.4814453 24.4707031 22.6669931 24.0800762 22.7890622 23.7431655 22.8476562 23.4599609 22.9062503 23.1767564 22.9355469 22.9049492 22.9355469 22.6445312 22.9355469 21.7395788 22.67025 21.039716 22.1396484 20.5449219 21.6090468 20.0501277 20.8424529 19.8027344 19.8398438 19.8027344 18.5312435 19.8027344 17.4993527 20.1803348 16.7441406 20.9355469 16.7571615 21.8535202 16.8466789 22.6396452 17.0126953 23.2939453 17.1787118 23.9482455 17.3642568 24.4332667 17.5693359 24.7490234 17.7744151 25.0647802 18.0445947 25.3089184 18.3798828 25.4814453 18.7151709 25.6539722 18.9723298 25.7499999 19.1513672 25.7695312 19.3304045 25.7890626 19.5598944 25.7988281 19.8398438 25.7988281z"/>
  </g>
</svg>
